<?xml version="1.0" standalone="no"?>
<!DOCTYPE svg PUBLIC "-//W3C//DTD SVG 20010904//EN"
 "http://www.w3.org/TR/2001/REC-SVG-20010904/DTD/svg10.dtd">
<svg version="1.0" xmlns="http://www.w3.org/2000/svg"
 width="500.000000pt" height="500.000000pt" viewBox="0 0 500.000000 500.000000"
 preserveAspectRatio="xMidYMid meet">
<metadata>
Created by potrace 1.11, written by Peter Selinger 2001-2013
</metadata>
<g transform="translate(0.000000,500.000000) scale(0.100000,-0.100000)"
fill="#000000" stroke="none">
<path d="M1859 3838 c-54 -14 -128 -77 -161 -135 -154 -274 207 -552 433 -332
46 45 87 119 81 148 -2 7 1 10 7 6 6 -3 11 -13 11 -21 0 -8 9 -32 20 -53 66
-130 200 -188 336 -145 76 23 154 99 175 168 14 50 19 49 39 -4 69 -182 314
-237 450 -100 61 60 83 110 86 191 3 55 -2 76 -25 125 -49 105 -134 158 -251
159 -65 0 -82 -4 -129 -30 -29 -16 -68 -48 -86 -70 -32 -40 -68 -117 -60 -129
3 -3 1 -3 -3 1 -5 5 -15 28 -22 52 -17 52 -87 128 -145 156 -47 22 -151 29
-198 13 -81 -28 -164 -112 -185 -189 l-9 -34 -12 30 c-61 157 -200 234 -352
193z"/>
<path d="M1299 3277 c-200 -75 -260 -294 -125 -454 23 -27 96 -70 151 -89 16
-6 13 -8 -18 -15 -81 -19 -161 -95 -191 -182 -30 -89 -13 -185 46 -260 33 -41
103 -86 151 -97 l32 -7 -42 -13 c-104 -32 -190 -138 -200 -245 -11 -112 57
-228 162 -280 63 -31 175 -27 242 7 139 73 191 242 117 379 -33 60 -111 125
-161 135 -44 8 -41 16 9 32 60 19 124 75 155 135 72 140 16 304 -128 377 -21
11 -45 20 -54 20 -31 0 -14 16 30 28 66 17 146 101 169 176 22 68 18 144 -10
203 -24 49 -88 113 -138 137 -51 24 -150 30 -197 13z"/>
<path d="M3541 3279 c-147 -45 -234 -211 -185 -354 30 -90 112 -167 197 -185
l32 -6 -40 -14 c-158 -52 -242 -217 -187 -365 31 -81 112 -157 182 -172 37 -7
49 -23 18 -23 -13 0 -46 -13 -74 -30 -193 -110 -189 -377 7 -485 46 -26 65
-30 129 -30 64 0 83 4 129 30 94 52 143 131 147 236 5 112 -52 206 -157 259
-21 11 -45 20 -54 20 -27 0 -16 17 15 24 65 12 157 98 184 171 15 39 18 116 7
162 -23 89 -113 184 -191 199 -42 9 -38 17 16 33 68 20 145 100 168 175 43
137 -21 279 -153 342 -42 20 -144 27 -190 13z"/>
<path d="M1870 1601 c-78 -24 -142 -76 -178 -145 -22 -42 -27 -64 -27 -126 0
-65 4 -82 30 -128 52 -94 131 -144 237 -148 57 -3 75 1 127 27 68 34 121 92
142 154 7 22 17 43 21 48 4 4 6 4 3 1 -8 -12 28 -89 60 -129 18 -22 57 -54 86
-70 47 -26 64 -30 129 -30 80 0 126 17 189 71 36 30 73 93 82 139 5 26 7 27
13 10 54 -150 140 -219 276 -220 65 0 82 4 129 30 200 110 199 380 0 490 -46
26 -65 30 -129 30 -64 0 -83 -4 -129 -30 -73 -40 -139 -125 -144 -185 -2 -27
-14 -15 -21 22 -15 76 -109 165 -199 189 -95 25 -217 -15 -280 -93 -35 -45
-70 -121 -60 -132 4 -3 1 -6 -5 -6 -7 0 -12 9 -12 20 0 38 -43 111 -87 148
-72 61 -175 86 -253 63z"/>
</g>
</svg>
